<svg id="e4jmytluf7L1" xmlns="http://www.w3.org/2000/svg" xmlns:xlink="http://www.w3.org/1999/xlink" viewBox="0 0 490 512" shape-rendering="geometricPrecision" text-rendering="geometricPrecision"><g id="e4jmytluf7L2" mask="url(#e4jmytluf7L36)"><path id="e4jmytluf7L3" d="M477.126,345.581C485.474,320.914,490,294.486,490,267C490,131.69,380.31,22,245,22C109.69,22,0,131.69,0,267C0,294.486,4.526,320.914,12.874,345.581L208.556,509.298C220.447,511.072,232.615,512,245,512C257.385,512,269.553,511.072,281.444,509.298L477.126,345.581Z" transform="matrix(1 0 0 1 0 20)" fill="rgb(77,57,124)" stroke="none" stroke-width="1"/><path id="e4jmytluf7L4" d="M245,452C355.457,452,445,362.457,445,252C445,141.543,355.457,52,245,52C134.543,52,45,141.543,45,252C45,362.457,134.543,452,245,452Z" transform="matrix(1 0 0 1 0 20)" fill="rgb(51,32,98)" stroke="none" stroke-width="1"/><g id="e4jmytluf7L5" transform="matrix(1 0 0 1 0 40)"><path id="e4jmytluf7L6" d="M477.126,345.581L464.293,272.802C459.302,244.5,442.337,219.729,417.751,204.847C396.438,191.947,380.73,171.532,373.721,147.625L373.439,146.664L348.941,118.905L355.554,85.66L344.376,47.533L282.154,58.504L284.69,98.155L299.064,122.573L288.748,161.597L288.812,162.596C290.402,187.458,282.623,212.014,267.008,231.426C248.994,253.819,241.524,282.898,246.515,311.201L281.445,509.297C317.144,503.973,350.327,490.946,379.251,471.965L379.24,471.961L399.128,394.098L463.598,377.729L463.597,377.734C468.835,367.416,473.371,356.679,477.126,345.581L477.126,345.581Z" transform="matrix(1 0 0 1 0 -0.21451)" fill="rgb(56,198,116)" stroke="none" stroke-width="1"/><path id="e4jmytluf7L7" d="M373.44,146.665L348.942,118.906L355.555,85.6609L344.377,47.5339L282.155,58.5049L284.691,98.1559L299.065,122.574L288.749,161.598L288.813,162.597C290.403,187.459,282.624,212.015,267.009,231.427C248.995,253.82,241.525,282.899,246.516,311.202L281.446,509.298C294.659,507.327,307.523,504.295,319.958,500.303L288.148,319.901C283.157,291.599,290.628,262.519,308.641,240.126C321.684,223.912,329.259,204.109,330.475,183.537C330.905,176.265,336.316,170.261,343.49,168.996L379.482,162.65C377.174,157.834,375.243,152.812,373.723,147.626L373.44,146.665Z" fill="rgb(33,183,93)" stroke="none" stroke-width="1"/><path id="e4jmytluf7L8" d="M340.037,0.18193L270.037,12.5249C263.594,13.6609,259.291,19.8059,260.427,26.2489L261.798,34.0269C262.934,40.4699,269.079,44.7729,275.522,43.6369L345.522,31.2939C351.965,30.1579,356.268,24.0129,355.132,17.5699L353.761,9.79193C352.624,3.34793,346.48,-0.954071,340.037,0.18193L340.037,0.18193Z" fill="rgb(56,198,116)" stroke="none" stroke-width="1"/><path id="e4jmytluf7L9" d="M292.909,28.5411L291.538,20.7631C290.402,14.3201,294.704,8.17506,301.148,7.03906L270.037,12.5251C263.594,13.6611,259.291,19.8051,260.427,26.2491L261.798,34.0271C262.934,40.4701,269.078,44.7731,275.522,43.6371L306.633,38.1511C300.19,39.2871,294.046,34.9841,292.909,28.5411L292.909,28.5411Z" fill="rgb(33,183,93)" stroke="none" stroke-width="1"/><path id="e4jmytluf7L10" d="M345.522,31.293L275.522,43.636C269.079,44.772,264.776,50.917,265.912,57.36L267.283,65.138C268.419,71.581,274.564,75.884,281.007,74.748L351.007,62.405C357.45,61.269,361.753,55.124,360.617,48.681L359.246,40.903C358.11,34.459,351.966,30.157,345.522,31.293Z" fill="rgb(73,216,139)" stroke="none" stroke-width="1"/><path id="e4jmytluf7L11" d="M298.395,59.6519L297.024,51.8739C295.888,45.4309,300.19,39.2859,306.634,38.1499L275.523,43.6359C269.08,44.7719,264.777,50.9159,265.913,57.3599L267.284,65.1379C268.42,71.5809,274.564,75.8839,281.008,74.7479L312.119,69.2619C305.676,70.3979,299.531,66.0949,298.395,59.6519Z" fill="rgb(56,198,116)" stroke="none" stroke-width="1"/><path id="e4jmytluf7L12" d="M288.748,161.598L373.44,146.665L355.555,85.6619L284.69,98.1569L288.748,161.598Z" fill="rgb(255,221,64)" stroke="none" stroke-width="1"/><path id="e4jmytluf7L13" d="M284.69,98.1569L288.748,161.598L319.859,156.113L315.801,92.6709L284.69,98.1569Z" fill="rgb(255,200,57)" stroke="none" stroke-width="1"/><path id="e4jmytluf7L14" d="M463.598,377.731C463.497,373.028,463.038,368.272,462.196,363.496C453.3,313.047,405.193,279.362,354.744,288.257C304.295,297.153,270.61,345.26,279.505,395.709C287.944,443.57,331.676,476.337,379.217,471.978C414.93,448.546,444.152,416.042,463.598,377.731L463.598,377.731Z" fill="rgb(75,100,150)" stroke="none" stroke-width="1"/><path id="e4jmytluf7L15" d="M345.905,384.001C339.075,345.265,357.351,307.912,389.041,288.627C378.042,286.425,366.456,286.192,354.743,288.257C304.294,297.153,270.609,345.26,279.504,395.709C287.943,443.57,331.675,476.337,379.216,471.978C387.548,466.511,395.525,460.551,403.109,454.137C374.185,442.656,351.706,416.898,345.905,384.001L345.905,384.001Z" fill="rgb(60,80,130)" stroke="none" stroke-width="1"/><path id="e4jmytluf7L16" d="M420.895,390.909C424.317,382.089,425.518,372.283,423.929,362.296C419.144,332.224,390.552,311.516,360.494,316.391C330.001,321.337,309.536,350.242,314.883,380.565C316.7,390.868,321.262,399.996,327.684,407.333C329.754,409.699,330.017,413.127,328.462,415.859C327.326,417.854,326.874,419.841,327.212,421.76C328.331,428.108,337.816,432.21,351.363,433.275C354.743,433.541,357.529,436.033,358.118,439.372C358.828,443.399,362.668,446.088,366.695,445.378L397.254,439.99C401.281,439.28,403.97,435.44,403.26,431.413C402.671,428.074,404.437,424.78,407.522,423.374C419.888,417.74,427.398,410.641,426.279,404.293C425.941,402.375,424.836,400.662,423.087,399.176C420.692,397.143,419.759,393.836,420.895,390.909L420.895,390.909Z" fill="rgb(233,239,255)" stroke="none" stroke-width="1"/><path id="e4jmytluf7L17" d="M346.972,403.095C354.177,403.095,360.017,397.254,360.017,390.05C360.017,382.845,354.177,377.005,346.972,377.005C339.767,377.005,333.927,382.845,333.927,390.05C333.927,397.254,339.767,403.095,346.972,403.095Z" fill="rgb(190,200,247)" stroke="none" stroke-width="1"/><path id="e4jmytluf7L18" d="M396.862,394.298C404.067,394.298,409.907,388.458,409.907,381.253C409.907,374.048,404.067,368.208,396.862,368.208C389.657,368.208,383.817,374.048,383.817,381.253C383.817,388.458,389.657,394.298,396.862,394.298Z" fill="rgb(190,200,247)" stroke="none" stroke-width="1"/><path id="e4jmytluf7L19" d="M381.964,450.185C378.393,450.185,375.228,447.625,374.587,443.987L372.454,431.888C371.735,427.809,374.459,423.918,378.538,423.2C382.618,422.476,386.507,425.204,387.226,429.283L389.359,441.382C390.078,445.461,387.354,449.352,383.275,450.07C382.835,450.147,382.396,450.185,381.964,450.185L381.964,450.185Z" fill="rgb(190,200,247)" stroke="none" stroke-width="1"/></g><g id="e4jmytluf7L20" transform="matrix(0.999998 0.001869 -0.001869 0.999998 0.476161 39.759464)"><path id="e4jmytluf7L21" d="M222.992,231.428C207.377,212.016,199.598,187.46,201.188,162.598L201.252,161.599L190.936,122.575L205.31,98.1569L207.846,58.5059L145.624,47.5349L134.446,85.6619L141.059,118.907L116.561,146.666L116.279,147.627C109.27,171.534,93.562,191.948,72.249,204.849C47.663,219.731,30.698,244.501,25.707,272.804L12.874,345.583C16.63,356.681,21.165,367.417,26.403,377.737L26.402,377.732L90.872,394.101L110.76,471.964L110.749,471.968C139.673,490.949,172.856,503.976,208.555,509.3L243.485,311.204C248.476,282.9,241.006,253.821,222.992,231.428L222.992,231.428Z" fill="rgb(56,198,116)" stroke="none" stroke-width="1"/><path id="e4jmytluf7L22" d="M201.188,162.598L201.252,161.599L190.936,122.575L205.31,98.1569L207.846,58.5059L145.624,47.5349L134.446,85.6619L141.059,118.907L116.561,146.666L116.279,147.627C109.27,171.534,93.562,191.948,72.249,204.849C47.663,219.731,30.698,244.501,25.707,272.804L12.874,345.583C16.63,356.681,21.168,367.416,26.409,377.734L46.408,382.812L61.853,295.217C66.843,266.915,83.809,242.144,108.395,227.262C126.197,216.487,140.088,200.469,148.267,181.553C151.158,174.867,158.297,171.075,165.47,172.34L201.462,178.686C200.941,173.37,200.843,167.991,201.188,162.598L201.188,162.598Z" fill="rgb(33,183,93)" stroke="none" stroke-width="1"/><path id="e4jmytluf7L23" d="M219.964,12.5249L149.964,0.18193C143.521,-0.954071,137.376,3.34793,136.24,9.79193L134.869,17.5699C133.733,24.0129,138.035,30.1579,144.479,31.2939L214.479,43.6369C220.922,44.7729,227.067,40.4709,228.203,34.0269L229.574,26.2489C230.709,19.8049,226.407,13.6609,219.964,12.5249L219.964,12.5249Z" fill="rgb(56,198,116)" stroke="none" stroke-width="1"/><path id="e4jmytluf7L24" d="M165.979,23.055L167.35,15.277C168.486,8.83395,174.63,4.53095,181.074,5.66695L149.963,0.180953C143.52,-0.955047,137.375,3.34695,136.239,9.79095L134.868,17.569C133.732,24.012,138.034,30.157,144.478,31.293L175.589,36.779C169.145,35.643,164.843,29.498,165.979,23.055L165.979,23.055Z" fill="rgb(33,183,93)" stroke="none" stroke-width="1"/><path id="e4jmytluf7L25" d="M214.478,43.636L144.478,31.293C138.035,30.157,131.89,34.459,130.754,40.903L129.383,48.681C128.247,55.124,132.549,61.269,138.993,62.405L208.993,74.748C215.436,75.884,221.581,71.582,222.717,65.138L224.088,57.36C225.224,50.917,220.921,44.772,214.478,43.636L214.478,43.636Z" fill="rgb(73,216,139)" stroke="none" stroke-width="1"/><path id="e4jmytluf7L26" d="M160.494,54.166L161.865,46.388C163.001,39.945,169.145,35.642,175.589,36.778L144.478,31.292C138.035,30.156,131.89,34.458,130.754,40.902L129.383,48.68C128.247,55.123,132.549,61.268,138.993,62.404L170.104,67.89C163.66,66.754,159.357,60.61,160.494,54.166L160.494,54.166Z" fill="rgb(56,198,116)" stroke="none" stroke-width="1"/><path id="e4jmytluf7L27" d="M116.56,146.665L201.252,161.598L205.31,98.1569L134.445,85.6619L116.56,146.665Z" fill="rgb(255,221,64)" stroke="none" stroke-width="1"/><path id="e4jmytluf7L28" d="M134.445,85.6619L116.56,146.665L147.672,152.151L165.557,91.1469L134.445,85.6619Z" fill="rgb(255,200,57)" stroke="none" stroke-width="1"/><path id="e4jmytluf7L29" d="M135.256,288.257C84.807,279.362,36.699,313.047,27.804,363.496C26.962,368.273,26.503,373.028,26.402,377.731C45.847,416.043,75.07,448.546,110.783,471.978C158.324,476.337,202.056,443.57,210.495,395.709C219.391,345.26,185.705,297.152,135.256,288.257Z" fill="rgb(75,100,150)" stroke="none" stroke-width="1"/><path id="e4jmytluf7L30" d="M167.359,300.335C157.776,294.504,146.969,290.322,135.256,288.257C84.807,279.361,36.699,313.047,27.804,363.496C26.962,368.273,26.503,373.028,26.402,377.731C45.843,416.034,75.057,448.532,110.76,471.963C119.831,472.796,128.765,472.295,137.34,470.578C105.649,451.293,87.374,413.94,94.204,375.204C101.034,336.468,130.984,307.618,167.359,300.335L167.359,300.335Z" fill="rgb(60,80,130)" stroke="none" stroke-width="1"/><path id="e4jmytluf7L31" d="M162.309,407.343C168.541,400.225,173.023,391.421,174.946,381.493C180.735,351.598,160.949,322.36,131.037,316.661C100.691,310.88,71.5751,331.042,66.2281,361.365C64.4111,371.668,65.5771,381.806,69.1011,390.897C70.2371,393.828,69.3121,397.14,66.9161,399.175C65.1661,400.661,64.0611,402.374,63.7231,404.293C62.6041,410.641,70.1131,417.74,82.4801,423.374C85.5661,424.78,87.3311,428.074,86.7421,431.413C86.0321,435.44,88.7211,439.28,92.7481,439.99L123.307,445.378C127.334,446.088,131.174,443.399,131.884,439.372C132.473,436.033,135.258,433.541,138.639,433.275C152.187,432.21,161.671,428.108,162.79,421.76C163.128,419.842,162.676,417.854,161.54,415.86C159.986,413.132,160.241,409.705,162.309,407.343L162.309,407.343Z" fill="rgb(233,239,255)" stroke="none" stroke-width="1"/><path id="e4jmytluf7L32" d="M94.2041,375.204C98.5181,350.739,112.06,330.226,130.612,316.591C100.42,311.078,71.5501,331.183,66.2281,361.365C64.4111,371.668,65.5771,381.806,69.1011,390.897C70.2371,393.828,69.3121,397.14,66.9161,399.175C65.1661,400.661,64.0611,402.374,63.7231,404.293C62.6041,410.641,70.1131,417.74,82.4801,423.374C85.5661,424.78,87.3311,428.074,86.7421,431.413C86.0321,435.44,88.7211,439.28,92.7481,439.99L108.379,442.746C95.6021,423.586,89.8901,399.674,94.2041,375.204L94.2041,375.204Z" fill="rgb(218,226,254)" stroke="none" stroke-width="1"/><path id="e4jmytluf7L33" d="M93.138,394.298C100.343,394.298,106.183,388.458,106.183,381.253C106.183,374.048,100.343,368.208,93.138,368.208C85.9335,368.208,80.093,374.048,80.093,381.253C80.093,388.458,85.9335,394.298,93.138,394.298Z" fill="rgb(190,200,247)" stroke="none" stroke-width="1"/><path id="e4jmytluf7L34" d="M143.028,403.095C150.233,403.095,156.073,397.254,156.073,390.05C156.073,382.845,150.233,377.005,143.028,377.005C135.823,377.005,129.983,382.845,129.983,390.05C129.983,397.254,135.823,403.095,143.028,403.095Z" fill="rgb(190,200,247)" stroke="none" stroke-width="1"/><path id="e4jmytluf7L35" d="M108.036,450.185C107.603,450.185,107.165,450.148,106.725,450.07C102.646,449.351,99.922,445.461,100.641,441.382L102.774,429.283C103.493,425.204,107.387,422.475,111.462,423.2C115.541,423.919,118.265,427.809,117.546,431.888L115.413,443.987C114.771,447.624,111.606,450.185,108.036,450.185L108.036,450.185Z" fill="rgb(190,200,247)" stroke="none" stroke-width="1"/></g><mask id="e4jmytluf7L36" mask-type="luminance"><ellipse id="e4jmytluf7L37" rx="224.476943" ry="224.476943" transform="matrix(1.093767 0 0 1.093768 252.649057 267)" fill="rgb(255,255,255)" stroke="none" stroke-width="0"/></mask></g><script><![CDATA[!function(t,n){"object"==typeof exports&&"undefined"!=typeof module?module.exports=n():"function"==typeof define&&define.amd?define(n):(t="undefined"!=typeof globalThis?globalThis:t||self).__SVGATOR_PLAYER__=n()}(this,(function(){"use strict";function t(n){return(t="function"==typeof Symbol&&"symbol"==typeof Symbol.iterator?function(t){return typeof t}:function(t){return t&&"function"==typeof Symbol&&t.constructor===Symbol&&t!==Symbol.prototype?"symbol":typeof t})(n)}function n(t,n){if(!(t instanceof n))throw new TypeError("Cannot call a class as a function")}function r(t,n){for(var r=0;r<n.length;r++){var e=n[r];e.enumerable=e.enumerable||!1,e.configurable=!0,"value"in e&&(e.writable=!0),Object.defineProperty(t,e.key,e)}}function e(t,n,e){return n&&r(t.prototype,n),e&&r(t,e),t}function i(t){return(i=Object.setPrototypeOf?Object.getPrototypeOf:function(t){return t.__proto__||Object.getPrototypeOf(t)})(t)}function o(t,n){return(o=Object.setPrototypeOf||function(t,n){return t.__proto__=n,t})(t,n)}function u(t,n){return!n||"object"!=typeof n&&"function"!=typeof n?function(t){if(void 0===t)throw new ReferenceError("this hasn't been initialised - super() hasn't been called");return t}(t):n}function a(t){var n=function(){if("undefined"==typeof Reflect||!Reflect.construct)return!1;if(Reflect.construct.sham)return!1;if("function"==typeof Proxy)return!0;try{return Boolean.prototype.valueOf.call(Reflect.construct(Boolean,[],(function(){}))),!0}catch(t){return!1}}();return function(){var r,e=i(t);if(n){var o=i(this).constructor;r=Reflect.construct(e,arguments,o)}else r=e.apply(this,arguments);return u(this,r)}}function l(t,n,r){return(l="undefined"!=typeof Reflect&&Reflect.get?Reflect.get:function(t,n,r){var e=function(t,n){for(;!Object.prototype.hasOwnProperty.call(t,n)&&null!==(t=i(t)););return t}(t,n);if(e){var o=Object.getOwnPropertyDescriptor(e,n);return o.get?o.get.call(r):o.value}})(t,n,r||t)}var f=s(Math.pow(10,-6));function s(t){var n=arguments.length>1&&void 0!==arguments[1]?arguments[1]:6;if(Number.isInteger(t))return t;var r=Math.pow(10,n);return Math.round((+t+Number.EPSILON)*r)/r}function c(t,n){var r=arguments.length>2&&void 0!==arguments[2]?arguments[2]:f;return Math.abs(t-n)<r}var h=Math.PI/180;function v(t){return t}function y(t,n,r){var e=1-r;return 3*r*e*(t*e+n*r)+r*r*r}function d(){var t=arguments.length>0&&void 0!==arguments[0]?arguments[0]:0,n=arguments.length>1&&void 0!==arguments[1]?arguments[1]:0,r=arguments.length>2&&void 0!==arguments[2]?arguments[2]:1,e=arguments.length>3&&void 0!==arguments[3]?arguments[3]:1;return t<0||t>1||r<0||r>1?null:c(t,n)&&c(r,e)?v:function(i){if(i<=0)return t>0?i*n/t:0===n&&r>0?i*e/r:0;if(i>=1)return r<1?1+(i-1)*(e-1)/(r-1):1===r&&t<1?1+(i-1)*(n-1)/(t-1):1;for(var o,u=0,a=1;u<a;){var l=y(t,r,o=(u+a)/2);if(c(i,l))break;l<i?u=o:a=o}return y(n,e,o)}}function g(){return 1}function p(t){return 1===t?1:0}function m(){var t=arguments.length>0&&void 0!==arguments[0]?arguments[0]:1,n=arguments.length>1&&void 0!==arguments[1]?arguments[1]:0;if(1===t){if(0===n)return p;if(1===n)return g}var r=1/t;return function(t){return t>=1?1:(t+=n*r)-t%r}}function b(t,n,r){return t>=.5?r:n}function w(t,n,r){return 0===t||n===r?n:t*(r-n)+n}function x(t,n,r){var e=w(t,n,r);return e<=0?0:e}function k(t,n,r){return 0===t?n:1===t?r:{x:w(t,n.x,r.x),y:w(t,n.y,r.y)}}function A(t,n,r){var e=function(t,n,r){return Math.round(w(t,n,r))}(t,n,r);return e<=0?0:e>=255?255:e}function S(t,n,r){return 0===t?n:1===t?r:{r:A(t,n.r,r.r),g:A(t,n.g,r.g),b:A(t,n.b,r.b),a:w(t,null==n.a?1:n.a,null==r.a?1:r.a)}}function _(t,n,r){if(0===t)return n;if(1===t)return r;var e=n.length;if(e!==r.length)return b(t,n,r);for(var i=[],o=0;o<e;o++)i.push(S(t,n[o],r[o]));return i}function O(t,n){for(var r=[],e=0;e<t;e++)r.push(n);return r}function M(t,n){if(--n<=0)return t;var r=(t=Object.assign([],t)).length;do{for(var e=0;e<r;e++)t.push(t[e])}while(--n>0);return t}var j,P=function(){function t(r){n(this,t),this.list=r,this.length=r.length}return e(t,[{key:"setAttribute",value:function(t,n){for(var r=this.list,e=0;e<this.length;e++)r[e].setAttribute(t,n)}},{key:"removeAttribute",value:function(t){for(var n=this.list,r=0;r<this.length;r++)n[r].removeAttribute(t)}},{key:"style",value:function(t,n){for(var r=this.list,e=0;e<this.length;e++)r[e].style[t]=n}}]),t}(),I=/-./g,E=function(t,n){return n.toUpperCase()};function F(t){return"function"==typeof t?t:b}function N(t){return t?"function"==typeof t?t:Array.isArray(t)?function(t){var n=arguments.length>1&&void 0!==arguments[1]?arguments[1]:v;if(!Array.isArray(t))return n;switch(t.length){case 1:return m(t[0])||n;case 2:return m(t[0],t[1])||n;case 4:return d(t[0],t[1],t[2],t[3])||n}return n}(t,null):function(t,n){var r=arguments.length>2&&void 0!==arguments[2]?arguments[2]:v;switch(t){case"linear":return v;case"steps":return m(n.steps||1,n.jump||0)||r;case"bezier":case"cubic-bezier":return d(n.x1||0,n.y1||0,n.x2||0,n.y2||0)||r}return r}(t.type,t.value,null):null}function B(t,n,r){var e=arguments.length>3&&void 0!==arguments[3]&&arguments[3],i=n.length-1;if(t<=n[0].t)return e?[0,0,n[0].v]:n[0].v;if(t>=n[i].t)return e?[i,1,n[i].v]:n[i].v;var o,u=n[0],a=null;for(o=1;o<=i;o++){if(!(t>n[o].t)){a=n[o];break}u=n[o]}return null==a?e?[i,1,n[i].v]:n[i].v:u.t===a.t?e?[o,1,a.v]:a.v:(t=(t-u.t)/(a.t-u.t),u.e&&(t=u.e(t)),e?[o,t,r(t,u.v,a.v)]:r(t,u.v,a.v))}function R(t,n){var r=arguments.length>2&&void 0!==arguments[2]?arguments[2]:null;return t&&t.length?"function"!=typeof n?null:("function"!=typeof r&&(r=null),function(e){var i=B(e,t,n);return null!=i&&r&&(i=r(i)),i}):null}function q(t,n){return t.t-n.t}function T(n,r,e,i,o){var u,a="@"===e[0],l="#"===e[0],f=j[e],s=b;switch(a?(u=e.substr(1),e=u.replace(I,E)):l&&(e=e.substr(1)),t(f)){case"function":if(s=f(i,o,B,N,e,a,r,n),l)return s;break;case"string":s=R(i,F(f));break;case"object":if((s=R(i,F(f.i),f.f))&&"function"==typeof f.u)return f.u(r,s,e,a,n)}return s?function(t,n,r){var e=arguments.length>3&&void 0!==arguments[3]&&arguments[3];if(e)return t instanceof P?function(e){return t.style(n,r(e))}:function(e){return t.style[n]=r(e)};if(Array.isArray(n)){var i=n.length;return function(e){var o=r(e);if(null==o)for(var u=0;u<i;u++)t[u].removeAttribute(n);else for(var a=0;a<i;a++)t[a].setAttribute(n,o)}}return function(e){var i=r(e);null==i?t.removeAttribute(n):t.setAttribute(n,i)}}(r,e,s,a):null}function L(n,r,e,i){if(!i||"object"!==t(i))return null;var o=null,u=null;return Array.isArray(i)?u=function(t){if(!t||!t.length)return null;for(var n=0;n<t.length;n++)t[n].e&&(t[n].e=N(t[n].e));return t.sort(q)}(i):(u=i.keys,o=i.data||null),u?T(n,r,e,u,o):null}function C(t,n,r){if(!r)return null;var e=[];for(var i in r)if(r.hasOwnProperty(i)){var o=L(t,n,i,r[i]);o&&e.push(o)}return e.length?e:null}function z(t,n){if(!n.duration||n.duration<0)return null;var r=function(t,n){if(!n)return null;var r=[];if(Array.isArray(n))for(var e=n.length,i=0;i<e;i++){var o=n[i];if(2===o.length){var u=null;if("string"==typeof o[0])u=t.getElementById(o[0]);else if(Array.isArray(o[0])){u=[];for(var a=0;a<o[0].length;a++)if("string"==typeof o[0][a]){var l=t.getElementById(o[0][a]);l&&u.push(l)}u=u.length?1===u.length?u[0]:new P(u):null}if(u){var f=C(t,u,o[1]);f&&(r=r.concat(f))}}}else for(var s in n)if(n.hasOwnProperty(s)){var c=t.getElementById(s);if(c){var h=C(t,c,n[s]);h&&(r=r.concat(h))}}return r.length?r:null}(t,n.elements);return r?function(t,n){var r=arguments.length>2&&void 0!==arguments[2]?arguments[2]:1/0,e=arguments.length>3&&void 0!==arguments[3]?arguments[3]:1,i=arguments.length>4&&void 0!==arguments[4]&&arguments[4],o=arguments.length>5&&void 0!==arguments[5]?arguments[5]:1,u=t.length,a=e>0?n:0;i&&r%2==0&&(a=n-a);var l=null;return function(f,s){var c=f%n,h=1+(f-c)/n;s*=e,i&&h%2==0&&(s=-s);var v=!1;if(h>r)c=a,v=!0,-1===o&&(c=e>0?0:n);else if(s<0&&(c=n-c),c===l)return!1;l=c;for(var y=0;y<u;y++)t[y](c);return v}}(r,n.duration,n.iterations||1/0,n.direction||1,!!n.alternate,n.fill||1):null}Number.isInteger||(Number.isInteger=function(t){return"number"==typeof t&&isFinite(t)&&Math.floor(t)===t}),Number.EPSILON||(Number.EPSILON=2220446049250313e-31);var D=function(){function t(r,e){var i=arguments.length>2&&void 0!==arguments[2]?arguments[2]:{};n(this,t),this._id=0,this._running=!1,this._rollingBack=!1,this._animations=r,this.duration=e.duration,this.alternate=e.alternate,this.fill=e.fill,this.iterations=e.iterations,this.direction=i.direction||1,this.speed=i.speed||1,this.fps=i.fps||100,this.offset=i.offset||0,this.rollbackStartOffset=0}return e(t,[{key:"_rollback",value:function(){var t=this,n=1/0,r=null;this.rollbackStartOffset=this.offset,this._rollingBack||(this._rollingBack=!0,this._running=!0);this._id=window.requestAnimationFrame((function e(i){if(t._rollingBack){null==r&&(r=i);var o=i-r,u=t.rollbackStartOffset-o,a=Math.round(u*t.speed);if(a>t.duration&&n!=1/0){var l=!!t.alternate&&a/t.duration%2>1,f=a%t.duration;a=(f+=l?t.duration:0)||t.duration}var s=t.fps?1e3/t.fps:0,c=Math.max(0,a);if(c<n-s){t.offset=c,n=c;for(var h=t._animations,v=h.length,y=0;y<v;y++)h[y](c,t.direction)}var d=!1;if(t.iterations>0&&-1===t.fill){var g=t.iterations*t.duration,p=g==a;a=p?0:a,t.offset=p?0:t.offset,d=a>g}a>0&&t.offset>=a&&!d?t._id=window.requestAnimationFrame(e):t.stop()}}))}},{key:"_start",value:function(){var t=this,n=arguments.length>0&&void 0!==arguments[0]?arguments[0]:0,r=-1/0,e=null,i={},o=function o(u){t._running=!0,null==e&&(e=u);var a=Math.round((u-e+n)*t.speed),l=t.fps?1e3/t.fps:0;if(a>r+l&&!t._rollingBack){t.offset=a,r=a;for(var f=t._animations,s=f.length,c=0,h=0;h<s;h++)i[h]?c++:(i[h]=f[h](a,t.direction),i[h]&&c++);if(c===s)return void t._stop()}t._id=window.requestAnimationFrame(o)};this._id=window.requestAnimationFrame(o)}},{key:"_stop",value:function(){this._id&&window.cancelAnimationFrame(this._id),this._running=!1,this._rollingBack=!1}},{key:"play",value:function(){!this._rollingBack&&this._running||(this._rollingBack=!1,this.rollbackStartOffset>this.duration&&(this.offset=this.rollbackStartOffset-(this.rollbackStartOffset-this.offset)%this.duration,this.rollbackStartOffset=0),this._start(this.offset))}},{key:"stop",value:function(){this._stop(),this.offset=0,this.rollbackStartOffset=0;var t=this.direction,n=this._animations;window.requestAnimationFrame((function(){for(var r=0;r<n.length;r++)n[r](0,t)}))}},{key:"reachedToEnd",value:function(){return this.iterations>0&&this.offset>=this.iterations*this.duration}},{key:"restart",value:function(){this._stop(),this.offset=0,this._start()}},{key:"pause",value:function(){this._stop()}},{key:"reverse",value:function(){this.direction=-this.direction}}],[{key:"build",value:function(n,r){return(n=function(t,n){if(j=n,!t||!t.root||!Array.isArray(t.animations))return null;for(var r=document.getElementsByTagName("svg"),e=!1,i=0;i<r.length;i++)if(r[i].id===t.root&&!r[i].svgatorAnimation){(e=r[i]).svgatorAnimation=!0;break}if(!e)return null;var o=t.animations.map((function(t){return z(e,t)})).filter((function(t){return!!t}));return o.length?{element:e,animations:o,animationSettings:t.animationSettings,options:t.options||void 0}:null}(n,r))?{el:n.element,options:n.options||{},player:new t(n.animations,n.animationSettings,n.options)}:null}}]),t}();function Q(t){return s(t)+""}function U(t){var n=arguments.length>1&&void 0!==arguments[1]?arguments[1]:" ";return t&&t.length?t.map(Q).join(n):""}function V(t){return t?null==t.a||t.a>=1?"rgb("+t.r+","+t.g+","+t.b+")":"rgba("+t.r+","+t.g+","+t.b+","+t.a+")":"transparent"}!function(){for(var t=0,n=["ms","moz","webkit","o"],r=0;r<n.length&&!window.requestAnimationFrame;++r)window.requestAnimationFrame=window[n[r]+"RequestAnimationFrame"],window.cancelAnimationFrame=window[n[r]+"CancelAnimationFrame"]||window[n[r]+"CancelRequestAnimationFrame"];window.requestAnimationFrame||(window.requestAnimationFrame=function(n){var r=Date.now(),e=Math.max(0,16-(r-t)),i=window.setTimeout((function(){n(r+e)}),e);return t=r+e,i},window.cancelAnimationFrame=window.clearTimeout)}();var G={f:null,i:function(t,n,r){return 0===t?n:1===t?r:{x:x(t,n.x,r.x),y:x(t,n.y,r.y)}},u:function(t,n){return function(r){var e=n(r);t.setAttribute("rx",Q(e.x)),t.setAttribute("ry",Q(e.y))}}},H={f:null,i:function(t,n,r){return 0===t?n:1===t?r:{width:x(t,n.width,r.width),height:x(t,n.height,r.height)}},u:function(t,n){return function(r){var e=n(r);t.setAttribute("width",Q(e.width)),t.setAttribute("height",Q(e.height))}}},Y=Math.sin,Z=Math.cos,J=Math.acos,K=Math.asin,W=Math.tan,X=Math.atan2,$=Math.PI/180,tt=180/Math.PI,nt=Math.sqrt,rt=function(){function t(){var r=arguments.length>0&&void 0!==arguments[0]?arguments[0]:1,e=arguments.length>1&&void 0!==arguments[1]?arguments[1]:0,i=arguments.length>2&&void 0!==arguments[2]?arguments[2]:0,o=arguments.length>3&&void 0!==arguments[3]?arguments[3]:1,u=arguments.length>4&&void 0!==arguments[4]?arguments[4]:0,a=arguments.length>5&&void 0!==arguments[5]?arguments[5]:0;n(this,t),this.m=[r,e,i,o,u,a],this.i=null,this.w=null,this.s=null}return e(t,[{key:"determinant",get:function(){var t=this.m;return t[0]*t[3]-t[1]*t[2]}},{key:"isIdentity",get:function(){if(null===this.i){var t=this.m;this.i=1===t[0]&&0===t[1]&&0===t[2]&&1===t[3]&&0===t[4]&&0===t[5]}return this.i}},{key:"point",value:function(t,n){var r=this.m;return{x:r[0]*t+r[2]*n+r[4],y:r[1]*t+r[3]*n+r[5]}}},{key:"translateSelf",value:function(){var t=arguments.length>0&&void 0!==arguments[0]?arguments[0]:0,n=arguments.length>1&&void 0!==arguments[1]?arguments[1]:0;if(!t&&!n)return this;var r=this.m;return r[4]+=r[0]*t+r[2]*n,r[5]+=r[1]*t+r[3]*n,this.w=this.s=this.i=null,this}},{key:"rotateSelf",value:function(){var t=arguments.length>0&&void 0!==arguments[0]?arguments[0]:0;if(t%=360){var n=Y(t*=$),r=Z(t),e=this.m,i=e[0],o=e[1];e[0]=i*r+e[2]*n,e[1]=o*r+e[3]*n,e[2]=e[2]*r-i*n,e[3]=e[3]*r-o*n,this.w=this.s=this.i=null}return this}},{key:"scaleSelf",value:function(){var t=arguments.length>0&&void 0!==arguments[0]?arguments[0]:1,n=arguments.length>1&&void 0!==arguments[1]?arguments[1]:1;if(1!==t||1!==n){var r=this.m;r[0]*=t,r[1]*=t,r[2]*=n,r[3]*=n,this.w=this.s=this.i=null}return this}},{key:"skewSelf",value:function(t,n){if(n%=360,(t%=360)||n){var r=this.m,e=r[0],i=r[1],o=r[2],u=r[3];t&&(t=W(t*$),r[2]+=e*t,r[3]+=i*t),n&&(n=W(n*$),r[0]+=o*n,r[1]+=u*n),this.w=this.s=this.i=null}return this}},{key:"resetSelf",value:function(){var t=arguments.length>0&&void 0!==arguments[0]?arguments[0]:1,n=arguments.length>1&&void 0!==arguments[1]?arguments[1]:0,r=arguments.length>2&&void 0!==arguments[2]?arguments[2]:0,e=arguments.length>3&&void 0!==arguments[3]?arguments[3]:1,i=arguments.length>4&&void 0!==arguments[4]?arguments[4]:0,o=arguments.length>5&&void 0!==arguments[5]?arguments[5]:0,u=this.m;return u[0]=t,u[1]=n,u[2]=r,u[3]=e,u[4]=i,u[5]=o,this.w=this.s=this.i=null,this}},{key:"recomposeSelf",value:function(){var t=arguments.length>0&&void 0!==arguments[0]?arguments[0]:null,n=arguments.length>1&&void 0!==arguments[1]?arguments[1]:null,r=arguments.length>2&&void 0!==arguments[2]?arguments[2]:null,e=arguments.length>3&&void 0!==arguments[3]?arguments[3]:null,i=arguments.length>4&&void 0!==arguments[4]?arguments[4]:null;return this.isIdentity||this.resetSelf(),t&&(t.x||t.y)&&this.translateSelf(t.x,t.y),n&&this.rotateSelf(n),r&&(r.x&&this.skewSelf(r.x,0),r.y&&this.skewSelf(0,r.y)),!e||1===e.x&&1===e.y||this.scaleSelf(e.x,e.y),i&&(i.x||i.y)&&this.translateSelf(i.x,i.y),this}},{key:"decompose",value:function(){var t=arguments.length>0&&void 0!==arguments[0]?arguments[0]:0,n=arguments.length>1&&void 0!==arguments[1]?arguments[1]:0,r=this.m,e=r[0]*r[0]+r[1]*r[1],i=[[r[0],r[1]],[r[2],r[3]]],o=nt(e);if(0===o)return{origin:{x:s(r[4]),y:s(r[5])},translate:{x:s(t),y:s(n)},scale:{x:0,y:0},skew:{x:0,y:0},rotate:0};i[0][0]/=o,i[0][1]/=o;var u=r[0]*r[3]-r[1]*r[2]<0;u&&(o=-o);var a=i[0][0]*i[1][0]+i[0][1]*i[1][1];i[1][0]-=i[0][0]*a,i[1][1]-=i[0][1]*a;var l=nt(i[1][0]*i[1][0]+i[1][1]*i[1][1]);if(0===l)return{origin:{x:s(r[4]),y:s(r[5])},translate:{x:s(t),y:s(n)},scale:{x:s(o),y:0},skew:{x:0,y:0},rotate:0};i[1][0]/=l,i[1][1]/=l,a/=l;var f=0;return i[1][1]<0?(f=J(i[1][1])*tt,i[0][1]<0&&(f=360-f)):f=K(i[0][1])*tt,u&&(f=-f),a=X(a,nt(i[0][0]*i[0][0]+i[0][1]*i[0][1]))*tt,u&&(a=-a),{origin:{x:s(r[4]),y:s(r[5])},translate:{x:s(t),y:s(n)},scale:{x:s(o),y:s(l)},skew:{x:s(a),y:0},rotate:s(f)}}},{key:"toString",value:function(){return null===this.s&&(this.s="matrix("+this.m.map((function(t){return s(t)})).join(" ")+")"),this.s}}]),t}();Object.freeze({M:2,L:2,Z:0,H:1,V:1,C:6,Q:4,T:2,S:4,A:7});var et={},it=null;function ot(n){var r=function(){if(it)return it;if("object"!==("undefined"==typeof document?"undefined":t(document))||!document.createElementNS)return{};var n=document.createElementNS("http://www.w3.org/2000/svg","svg");return n&&n.style?(n.style.position="absolute",n.style.opacity="0.01",n.style.zIndex="-9999",n.style.left="-9999px",n.style.width="1px",n.style.height="1px",it={svg:n}):{}}().svg;if(!r)return function(t){return null};var e=document.createElementNS(r.namespaceURI,"path");e.setAttributeNS(null,"d",n),e.setAttributeNS(null,"fill","none"),e.setAttributeNS(null,"stroke","none"),r.appendChild(e);var i=e.getTotalLength();return function(t){var n=e.getPointAtLength(i*t);return{x:n.x,y:n.y}}}function ut(t){return et[t]?et[t]:et[t]=ot(t)}function at(t,n,r,e){if(!t||!e)return!1;var i=["M",t.x,t.y];if(n&&r&&(i.push("C"),i.push(n.x),i.push(n.y),i.push(r.x),i.push(r.y)),n?!r:r){var o=n||r;i.push("Q"),i.push(o.x),i.push(o.y)}return n||r||i.push("L"),i.push(e.x),i.push(e.y),i.join(" ")}function lt(t,n,r,e){var i=arguments.length>4&&void 0!==arguments[4]?arguments[4]:1,o=at(t,n,r,e),u=ut(o);try{return u(i)}catch(t){return null}}function ft(t,n,r,e){var i=1-e;return i*i*t+2*i*e*n+e*e*r}function st(t,n,r,e){return 2*(1-e)*(n-t)+2*e*(r-n)}function ct(t,n,r,e){var i=arguments.length>4&&void 0!==arguments[4]&&arguments[4],o=lt(t,n,null,r,e);return o||(o={x:ft(t.x,n.x,r.x,e),y:ft(t.y,n.y,r.y,e)}),i&&(o.a=ht(t,n,r,e)),o}function ht(t,n,r,e){return Math.atan2(st(t.y,n.y,r.y,e),st(t.x,n.x,r.x,e))}function vt(t,n,r,e,i){var o=i*i;return i*o*(e-t+3*(n-r))+3*o*(t+r-2*n)+3*i*(n-t)+t}function yt(t,n,r,e,i){var o=1-i;return 3*(o*o*(n-t)+2*o*i*(r-n)+i*i*(e-r))}function dt(t,n,r,e,i){var o=arguments.length>5&&void 0!==arguments[5]&&arguments[5],u=lt(t,n,r,e,i);return u||(u={x:vt(t.x,n.x,r.x,e.x,i),y:vt(t.y,n.y,r.y,e.y,i)}),o&&(u.a=gt(t,n,r,e,i)),u}function gt(t,n,r,e,i){return Math.atan2(yt(t.y,n.y,r.y,e.y,i),yt(t.x,n.x,r.x,e.x,i))}function pt(t,n,r){return t+(n-t)*r}function mt(t,n,r){var e=arguments.length>3&&void 0!==arguments[3]&&arguments[3],i={x:pt(t.x,n.x,r),y:pt(t.y,n.y,r)};return e&&(i.a=bt(t,n)),i}function bt(t,n){return Math.atan2(n.y-t.y,n.x-t.x)}function wt(t,n,r){var e=arguments.length>3&&void 0!==arguments[3]&&arguments[3];if(kt(n)){if(At(r))return ct(n,r.start,r,t,e)}else if(kt(r)){if(n.end)return ct(n,n.end,r,t,e)}else{if(n.end)return r.start?dt(n,n.end,r.start,r,t,e):ct(n,n.end,r,t,e);if(r.start)return ct(n,r.start,r,t,e)}return mt(n,r,t,e)}function xt(t,n,r){var e=wt(t,n,r,!0);return e.a=function(t){var n=arguments.length>1&&void 0!==arguments[1]&&arguments[1];return n?t+Math.PI:t}(e.a)/h,e}function kt(t){return!t.type||"corner"===t.type}function At(t){return null!=t.start&&!kt(t)}var St=new rt;var _t={f:Q,i:w},Ot={f:Q,i:function(t,n,r){var e=w(t,n,r);return e<=0?0:e>=1?1:e}};function Mt(t,n,r,e,i,o,u,a){return n=function(t,n,r){for(var e,i,o,u=t.length-1,a={},l=0;l<=u;l++)(e=t[l]).e&&(e.e=n(e.e)),e.v&&"g"===(i=e.v).t&&i.r&&(o=r.getElementById(i.r))&&(a[i.r]=o.querySelectorAll("stop"));return a}(t,e,a),function(e){var i,o=r(e,t,jt);return o?"c"===o.t?V(o.v):"g"===o.t?(n[o.r]&&function(t,n){for(var r=0,e=t.length;r<e;r++)t[r].setAttribute("stop-color",V(n[r]))}(n[o.r],o.v),(i=o.r)?"url(#"+i+")":"none"):"none":"none"}}function jt(t,n,r){if(0===t)return n;if(1===t)return r;if(n&&r){var e=n.t;if(e===r.t)switch(n.t){case"c":return{t:e,v:S(t,n.v,r.v)};case"g":if(n.r===r.r)return{t:e,v:_(t,n.v,r.v),r:n.r}}}return b(t,n,r)}var Pt={fill:Mt,"fill-opacity":Ot,stroke:Mt,"stroke-opacity":Ot,"stroke-width":_t,"stroke-dashoffset":{f:Q,i:w},"stroke-dasharray":{f:function(t){var n=arguments.length>1&&void 0!==arguments[1]?arguments[1]:" ";return t&&t.length>0&&(t=t.map((function(t){return s(t,4)}))),U(t,n)},i:function(t,n,r){var e,i,o,u=n.length,a=r.length;if(u!==a)if(0===u)n=O(u=a,0);else if(0===a)a=u,r=O(u,0);else{var l=(o=(e=u)*(i=a)/function(t,n){for(var r;n;)r=n,n=t%n,t=r;return t||1}(e,i))<0?-o:o;n=M(n,Math.floor(l/u)),r=M(r,Math.floor(l/a)),u=a=l}for(var f=[],c=0;c<u;c++)f.push(s(x(t,n[c],r[c])));return f}},opacity:Ot,transform:function(n,r,e,i){if(!(n=function(n,r){if(!n||"object"!==t(n))return null;var e=!1;for(var i in n)n.hasOwnProperty(i)&&(n[i]&&n[i].length?(n[i].forEach((function(t){t.e&&(t.e=r(t.e))})),e=!0):delete n[i]);return e?n:null}(n,i)))return null;var o=function(t,i,o){var u=arguments.length>3&&void 0!==arguments[3]?arguments[3]:null;return n[t]?e(i,n[t],o):r&&r[t]?r[t]:u};return r&&r.a&&n.o?function(t){var r=e(t,n.o,xt);return St.recomposeSelf(r,o("r",t,w,0)+r.a,o("k",t,k),o("s",t,k),o("t",t,k)).toString()}:function(t){return St.recomposeSelf(o("o",t,wt,null),o("r",t,w,0),o("k",t,k),o("s",t,k),o("t",t,k)).toString()}},r:_t,"#size":H,"#radius":G,_:function(t,n){if(Array.isArray(t))for(var r=0;r<t.length;r++)this[t[r]]=n;else this[t]=n}};return function(t){!function(t,n){if("function"!=typeof n&&null!==n)throw new TypeError("Super expression must either be null or a function");t.prototype=Object.create(n&&n.prototype,{constructor:{value:t,writable:!0,configurable:!0}}),n&&o(t,n)}(u,t);var r=a(u);function u(){return n(this,u),r.apply(this,arguments)}return e(u,null,[{key:"build",value:function(t){var n=l(i(u),"build",this).call(this,t,Pt);if(!n)return null;n.el,n.options;var r=n.player;return function(t,n,r){t.play()}(r),r}}]),u}(D)}));
__SVGATOR_PLAYER__.build({"root":"e4jmytluf7L1","animations":[{"duration":500,"direction":1,"iterations":2,"fill":1,"alternate":true,"speed":1,"elements":{"e4jmytluf7L5":{"transform":{"data":{"t":{"x":-361.062988,"y":-254.649002}},"keys":{"o":[{"t":0,"v":{"x":361.062988,"y":294.649002,"type":"corner"}},{"t":300,"v":{"x":347.465066,"y":286.055436,"type":"corner"}},{"t":500,"v":{"x":361.062988,"y":294.649002,"type":"corner"}}],"r":[{"t":0,"v":0},{"t":500,"v":-7.693069}]}}},"e4jmytluf7L20":{"transform":{"data":{"t":{"x":-128.937026,"y":-254.649505}},"keys":{"o":[{"t":0,"v":{"x":128.937026,"y":294.649506,"type":"corner"}},{"t":300,"v":{"x":131.114616,"y":286.999999,"type":"corner"}},{"t":500,"v":{"x":128.937026,"y":294.649506,"type":"corner"}}],"r":[{"t":0,"v":0.107085},{"t":500,"v":11.841982}]}}}}}],"options":{"start":"load","hover":null,"click":null,"scroll":null,"font":"embed","exportedIds":"unique","svgFormat":"animated","title":"drunkapp"},"animationSettings":{"duration":500,"direction":1,"iterations":2,"fill":1,"alternate":true,"speed":1}})]]></script></svg>